<?xml version="1.0" encoding="utf-8"?>
<!-- Generator: Adobe Illustrator 25.2.3, SVG Export Plug-In . SVG Version: 6.00 Build 0)  -->
<svg version="1.1" id="Layer_1" xmlns="http://www.w3.org/2000/svg" xmlns:xlink="http://www.w3.org/1999/xlink" x="0px" y="0px"
	 viewBox="0 0 72 72" style="enable-background:new 0 0 72 72;" xml:space="preserve">
<style type="text/css">
	.st0{fill:url(#SVGID_1_);}
</style>
<g id="Guides">
</g>
<linearGradient id="SVGID_1_" gradientUnits="userSpaceOnUse" x1="36" y1="63.0006" x2="36" y2="8.9994">
	<stop  offset="0" style="stop-color:#3673FC"/>
	<stop  offset="1" style="stop-color:#26BAFF"/>
</linearGradient>
<path class="st0" d="M64.8,9H7c-3.8,0-7,3.2-7,7V56c0,3.9,3.1,7,7.2,7H65c4,0,7-3,7-7V16.2C72,12.2,68.8,9,64.8,9z M61.2,15.1
	L36.6,36.4c-0.5,0.4-0.8,0.4-1.3,0L10.6,15.1H61.2z M65,56.9H7.2c-0.4,0-1-0.2-1-0.8V19.4L31.3,41c1.4,1.2,3,1.8,4.7,1.8
	c1.6,0,3.3-0.6,4.7-1.8l25.2-21.8V56C65.9,56.6,65.6,56.9,65,56.9z"/>
</svg>
