<svg width="471" height="87" viewBox="0 0 471 87" fill="none" xmlns="http://www.w3.org/2000/svg">
<path d="M2.64 85.2501C1.84 85.2501 1.2 85.0101 0.72 84.5301C0.24 83.9701 0 83.2901 0 82.4901V4.13005C0 3.25005 0.24 2.57005 0.72 2.09005C1.2 1.53005 1.84 1.25005 2.64 1.25005H35.4C43.88 1.25005 50.28 3.29005 54.6 7.37005C58.92 11.45 61.08 16.77 61.08 23.33C61.08 27.81 60.04 31.5701 57.96 34.6101C55.88 37.57 53.44 39.73 50.64 41.09C54.08 42.7701 56.96 45.3701 59.28 48.8901C61.6 52.4101 62.76 56.4501 62.76 61.0101C62.76 65.4901 61.72 69.5701 59.64 73.2501C57.64 76.9301 54.64 79.8501 50.64 82.0101C46.64 84.1701 41.88 85.2501 36.36 85.2501H2.64ZM33.6 36.89C38.8 36.89 42.76 35.7301 45.48 33.4101C48.2 31.0101 49.56 27.69 49.56 23.45C49.56 19.29 48.2 16.13 45.48 13.97C42.84 11.81 38.88 10.73 33.6 10.73H11.28V36.89H33.6ZM34.8 75.7701C39.92 75.7701 43.92 74.4101 46.8 71.6901C49.76 68.8901 51.24 65.3301 51.24 61.0101C51.24 56.6101 49.76 53.0501 46.8 50.3301C43.92 47.6101 39.92 46.2501 34.8 46.2501H11.28V75.7701H34.8Z" fill="#1A1A1A"/>
<path d="M122.039 86.4501C111.639 86.4501 103.599 83.7301 97.9191 78.2901C92.2391 72.7701 89.2391 64.4901 88.9191 53.4501C88.8391 51.05 88.7991 47.6501 88.7991 43.2501C88.7991 38.8501 88.8391 35.4901 88.9191 33.1701C89.2391 22.29 92.3191 14.05 98.1591 8.45005C104.079 2.85005 112.039 0.0500488 122.039 0.0500488C132.039 0.0500488 139.959 2.85005 145.799 8.45005C151.639 14.05 154.719 22.29 155.039 33.1701C155.199 37.8101 155.279 41.1701 155.279 43.2501C155.279 45.2501 155.199 48.6501 155.039 53.4501C154.719 64.4901 151.719 72.7701 146.039 78.2901C140.439 83.7301 132.439 86.4501 122.039 86.4501ZM122.039 76.4901C128.439 76.4901 133.559 74.5701 137.399 70.73C141.239 66.8101 143.319 60.8501 143.639 52.8501C143.799 48.0501 143.879 44.8501 143.879 43.2501C143.879 41.4901 143.799 38.2901 143.639 33.6501C143.319 25.65 141.239 19.69 137.399 15.77C133.559 11.85 128.439 9.89005 122.039 9.89005C115.639 9.89005 110.479 11.85 106.559 15.77C102.719 19.69 100.679 25.65 100.439 33.6501C100.359 35.9701 100.319 39.1701 100.319 43.2501C100.319 47.2501 100.359 50.4501 100.439 52.8501C100.679 60.8501 102.719 66.8101 106.559 70.73C110.399 74.5701 115.559 76.4901 122.039 76.4901Z" fill="#1A1A1A"/>
<path d="M187.656 85.2501C186.856 85.2501 186.216 85.0101 185.736 84.5301C185.256 83.9701 185.016 83.2901 185.016 82.4901V4.13005C185.016 3.25005 185.256 2.57005 185.736 2.09005C186.216 1.53005 186.856 1.25005 187.656 1.25005H192.936C193.736 1.25005 194.336 1.41005 194.736 1.73005C195.136 2.05005 195.536 2.45005 195.936 2.93005L236.136 64.8501V4.13005C236.136 3.25005 236.376 2.57005 236.856 2.09005C237.416 1.53005 238.096 1.25005 238.896 1.25005H244.296C245.176 1.25005 245.856 1.53005 246.336 2.09005C246.896 2.57005 247.176 3.25005 247.176 4.13005V82.3701C247.176 83.1701 246.896 83.8501 246.336 84.4101C245.856 84.9701 245.216 85.2501 244.416 85.2501H239.016C237.656 85.2501 236.696 84.6901 236.136 83.5701L195.936 22.25V82.4901C195.936 83.2901 195.656 83.9701 195.096 84.5301C194.616 85.0101 193.976 85.2501 193.176 85.2501H187.656Z" fill="#1A1A1A"/>
<path d="M306.979 86.4501C300.419 86.4501 294.699 85.4101 289.819 83.3301C285.019 81.2501 281.339 78.5301 278.779 75.1701C276.299 71.73 274.979 68.05 274.819 64.1301C274.819 63.4901 275.059 62.93 275.539 62.4501C276.019 61.9701 276.619 61.73 277.339 61.73H283.219C284.659 61.73 285.659 62.5301 286.219 64.1301C286.939 67.4901 288.979 70.41 292.339 72.8901C295.779 75.2901 300.659 76.4901 306.979 76.4901C313.779 76.4901 318.859 75.2901 322.219 72.8901C325.579 70.4901 327.259 67.1701 327.259 62.9301C327.259 60.2101 326.419 57.9701 324.739 56.2101C323.139 54.4501 320.699 52.9301 317.419 51.6501C314.219 50.2901 309.379 48.65 302.899 46.73C296.739 44.97 291.819 43.09 288.139 41.09C284.539 39.09 281.819 36.6501 279.979 33.7701C278.139 30.8101 277.219 27.09 277.219 22.6101C277.219 18.29 278.379 14.45 280.699 11.09C283.019 7.65005 286.379 4.97005 290.779 3.05005C295.179 1.05005 300.379 0.0500488 306.379 0.0500488C312.619 0.0500488 317.939 1.17005 322.339 3.41005C326.819 5.57005 330.219 8.33005 332.539 11.69C334.859 14.97 336.099 18.2901 336.259 21.6501C336.259 22.3701 336.019 22.97 335.539 23.45C335.059 23.93 334.459 24.1701 333.739 24.1701H327.739C327.099 24.1701 326.499 23.9701 325.939 23.5701C325.379 23.17 324.979 22.57 324.739 21.7701C324.259 18.3301 322.339 15.49 318.979 13.25C315.619 11.01 311.419 9.89005 306.379 9.89005C300.939 9.89005 296.619 10.97 293.419 13.1301C290.219 15.21 288.619 18.33 288.619 22.4901C288.619 25.29 289.339 27.57 290.779 29.3301C292.299 31.09 294.579 32.6501 297.619 34.0101C300.739 35.3701 305.259 36.9301 311.179 38.6901C317.979 40.6101 323.299 42.53 327.139 44.4501C331.059 46.37 333.979 48.7701 335.899 51.6501C337.819 54.4501 338.779 58.0901 338.779 62.5701C338.779 70.0901 335.899 75.9701 330.139 80.2101C324.459 84.3701 316.739 86.4501 306.979 86.4501Z" fill="#1A1A1A"/>
<path d="M432.67 85.4478C431.978 86.1251 431.118 86.5 430.141 86.5H359.701C358.708 86.5 357.836 86.1125 357.137 85.4139C356.438 84.7153 356.051 83.8432 356.051 82.85V82.7373L356.337 81.1652L389.98 3.42605C390.371 2.36913 390.987 1.48858 391.873 0.879948C392.766 0.266 393.828 0 394.981 0C396.133 0 397.196 0.266 398.089 0.879948C398.974 1.48858 399.591 2.36913 399.982 3.42605L433.625 81.1652L433.911 82.7373V82.85C433.911 83.8962 433.439 84.7745 432.67 85.4478Z" fill="#2B59D6"/>
<path fill-rule="evenodd" clip-rule="evenodd" d="M460.257 0C459.143 0 458.155 0.402457 457.419 1.24054C456.687 1.99168 456.367 2.95832 456.367 4.01V82.49C456.367 83.5612 456.697 84.5371 457.388 85.3435L457.419 85.3799L457.453 85.4139C458.209 86.1698 459.189 86.5 460.257 86.5H466.257C467.325 86.5 468.305 86.1698 469.061 85.4139C469.858 84.6168 470.267 83.6177 470.267 82.49V4.01C470.267 2.90099 469.959 1.86425 469.181 1.08612C468.403 0.308002 467.366 0 466.257 0H460.257ZM458.337 2.09L457.388 1.27652L457.419 1.24054C457.43 1.22902 457.442 1.21754 457.453 1.20612L458.337 2.09Z" fill="#2B59D6"/>
</svg>
