<?xml version="1.0" encoding="utf-8"?>
<!-- Generator: Adobe Illustrator 25.2.3, SVG Export Plug-In . SVG Version: 6.00 Build 0)  -->
<svg version="1.1" id="Layer_1" xmlns="http://www.w3.org/2000/svg" xmlns:xlink="http://www.w3.org/1999/xlink" x="0px" y="0px"
	 viewBox="0 0 72 72" style="enable-background:new 0 0 72 72;" xml:space="preserve">
<style type="text/css">
	.st0{fill:#FF4301;}
</style>
<g id="Guides">
</g>
<path class="st0" d="M72,36.4c0-4.4-3.6-7.9-7.9-7.9c-2.2,0-4,0.8-5.4,2.2c-5.4-3.8-12.9-6.5-21.2-6.7l3.6-16.9L53,9.6
	c0.2,3,2.6,5.4,5.6,5.4c3.2,0,5.6-2.6,5.6-5.6c0-3.2-2.6-5.6-5.6-5.6c-2.2,0-4.2,1.2-5,3.2L40.5,4.1c-0.4,0-0.8,0-1,0.2
	c-0.4,0.2-0.6,0.6-0.6,0.8l-4,19c-8.5,0.2-16.1,2.8-21.6,6.7c-1.4-1.4-3.4-2.2-5.4-2.2c-4.4,0-7.9,3.6-7.9,7.9c0,3.2,2,6.1,4.6,7.3
	c-0.2,0.8-0.2,1.6-0.2,2.4c0,12.3,14.3,22.2,31.9,22.2s31.9-9.9,31.9-22.2c0-0.8,0-1.6-0.2-2.4C70,42.5,72,39.6,72,36.4z M17.5,42.1
	c0-3.2,2.6-5.6,5.6-5.6c3.2,0,5.6,2.6,5.6,5.6c0,3.2-2.6,5.6-5.6,5.6C20,47.7,17.5,45.1,17.5,42.1z M49.2,57
	c-3.8,3.8-11.3,4.2-13.5,4.2c-2.2,0-9.7-0.4-13.5-4.2c-0.6-0.6-0.6-1.4,0-2c0.6-0.6,1.4-0.6,2,0c2.4,2.4,7.7,3.2,11.5,3.2
	c3.6,0,8.9-0.8,11.5-3.2c0.6-0.6,1.4-0.6,2,0C49.8,55.6,49.8,56.4,49.2,57z M48.2,47.7c-3.2,0-5.6-2.6-5.6-5.6
	c0-3.2,2.6-5.6,5.6-5.6c3,0,5.6,2.6,5.6,5.6C53.8,45.1,51.2,47.7,48.2,47.7z"/>
</svg>
