<svg width="24" height="24" viewBox="0 0 24 24" fill="none" xmlns="http://www.w3.org/2000/svg">
<path d="M13.2932 11.9503L19.0084 6.23401C19.1039 6.14177 19.1801 6.03142 19.2325 5.90942C19.2849 5.78741 19.3125 5.65619 19.3137 5.52341C19.3148 5.39063 19.2895 5.25896 19.2392 5.13606C19.189 5.01316 19.1147 4.90151 19.0208 4.80762C18.9269 4.71373 18.8153 4.63947 18.6924 4.58919C18.5695 4.53891 18.4378 4.51361 18.305 4.51476C18.1722 4.51592 18.041 4.5435 17.919 4.59591C17.797 4.64832 17.6867 4.7245 17.5944 4.82001L11.8782 10.5353L6.30508 4.96214C6.21284 4.86663 6.10249 4.79045 5.98049 4.73804C5.85848 4.68563 5.72726 4.65804 5.59448 4.65689C5.46171 4.65574 5.33003 4.68104 5.20713 4.73132C5.08423 4.7816 4.97258 4.85585 4.87869 4.94975C4.7848 5.04364 4.71054 5.15529 4.66026 5.27819C4.60998 5.40108 4.58468 5.53276 4.58583 5.66554C4.58699 5.79832 4.61457 5.92954 4.66698 6.05155C4.71939 6.17355 4.79557 6.28389 4.89108 6.37614L10.4642 11.9493L4.89109 17.5234C4.79558 17.6156 4.71939 17.726 4.66698 17.848C4.61458 17.97 4.58699 18.1012 4.58584 18.234C4.58468 18.3667 4.60998 18.4984 4.66026 18.6213C4.71055 18.7442 4.7848 18.8559 4.87869 18.9498C4.97258 19.0437 5.08424 19.1179 5.20713 19.1682C5.33003 19.2185 5.46171 19.2438 5.59449 19.2426C5.72727 19.2415 5.85849 19.2139 5.98049 19.1615C6.10249 19.1091 6.21284 19.0329 6.30509 18.9374L11.8782 13.3643L17.5944 19.0795C17.6867 19.175 17.797 19.2512 17.919 19.3036C18.041 19.356 18.1722 19.3836 18.305 19.3847C18.4378 19.3859 18.5695 19.3606 18.6924 19.3103C18.8153 19.26 18.9269 19.1858 19.0208 19.0919C19.1147 18.998 19.189 18.8863 19.2393 18.7634C19.2895 18.6405 19.3148 18.5089 19.3137 18.3761C19.3125 18.2433 19.2849 18.1121 19.2325 17.9901C19.1801 17.8681 19.1039 17.7577 19.0084 17.6655L13.2932 11.9503Z" fill="#222222"/>
</svg>
